# xmcd CD database file
#
# Track frame offsets:
#	150
#	14701
#	35321
#	53742
#	72388
#	88423
#	106777
#	121846
#
# Disc length: 1904 seconds
#
# Revision: 0
# Processed by: cddbd v1.5.1PL2 Copyright (c) Steve Scherf et al.
# Submitted via: CDex 1.51
#
DISCID=67076e08
DTITLE=Various Artist - Beautiful Everlasting Melody vol.2
DYEAR=2004
DGENRE=Instrumental
TTITLE0=22才の別れ (22 sai No Wakare)
TTITLE1=箱根八里 (Hakone Hachiri)
TTITLE2=兎のダンス (Usagi No Dansu)
TTITLE3=荒城の月 (Kojo No Tsuki)
TTITLE4=さくら (Sakura)
TTITLE5=花嫁人形 (Hanayome Ningyo)
TTITLE6=浜辺の歌 (Hamabe No Uta)
TTITLE7=富士の山 (Fuji No Yama)
EXTD=YEAR: 2004
EXTT0=
EXTT1=
EXTT2=
EXTT3=
EXTT4=
EXTT5=
EXTT6=
EXTT7=
PLAYORDER=
